<svg xmlns="http://www.w3.org/2000/svg" xmlns:xlink="http://www.w3.org/1999/xlink" id="Layer_1" width="512" height="512" x="0" y="0" enable-background="new 0 0 512 512" version="1.1" viewBox="0 0 512 512" xml:space="preserve"><path fill="#4C4E54" d="M189.697,472.736c-88.677,0-160.82-70.016-160.82-156.076c0-49.021,44.981-127.263,71.794-169.538	c17.18-27.078,35.728-53.41,52.227-74.144c7.715-9.701,14.404-17.442,19.887-23.01c6.504-6.609,11.603-10.705,16.913-10.705	c5.312,0,10.409,4.097,16.913,10.706c5.467,5.551,12.157,13.292,19.887,23.008c8.819,11.086,18.24,23.797,28.027,37.814	c-3.363,5.105-6.275,10.47-8.707,16.035c-21.843-31.891-39.887-54.15-49.821-64.646l-6.299-6.653l-6.298,6.653	c-15.228,16.087-44.775,54.607-73.664,101.171c-40.9,65.927-64.358,121.806-64.358,153.308c0,77.352,64.742,140.283,144.32,140.283	c79.58,0,144.322-62.932,144.322-140.283c0-10.951-2.781-24.803-8.275-41.244c4.896,0.721,9.836,1.084,14.756,1.084	c0.902,0,1.826-0.016,2.834-0.051c4.768,15.541,7.182,29.059,7.182,40.211C350.516,402.721,278.373,472.736,189.697,472.736z"/><path fill="#4C4E54" d="M338.148,279.697c-59.26,0-107.469-48.21-107.469-107.468c0-59.257,48.209-107.467,107.469-107.467	c34.371,0,66.938,16.664,87.117,44.576c2.428,3.356,1.674,8.045-1.684,10.473c-3.355,2.425-8.045,1.674-10.473-1.685	c-17.367-24.022-45.391-38.364-74.961-38.364c-50.988,0-92.469,41.48-92.469,92.467c0,50.987,41.48,92.468,92.469,92.468	c31.65,0,60.77-15.95,77.891-42.667c2.234-3.488,6.875-4.503,10.361-2.268s4.502,6.874,2.268,10.361	C408.775,261.166,374.936,279.697,338.148,279.697z"/><path fill="#E7364D" d="M141.984,411.725c-1.434,0-2.885-0.385-4.193-1.193c-33.555-20.707-53.112-46.861-58.13-77.736	c-8.896-54.744,31.357-103.71,33.075-105.768c2.832-3.392,7.877-3.845,11.269-1.014c3.391,2.831,3.846,7.874,1.016,11.266	c-0.56,0.677-37.303,45.686-29.553,93.037c4.265,26.053,21.331,48.459,50.726,66.6c3.76,2.32,4.927,7.25,2.606,11.01	C147.288,410.375,144.667,411.725,141.984,411.725z"/><path fill="#E7364D" stroke="#E7364D" stroke-miterlimit="10" stroke-width="4" d="M343.371,126.482l39.486,84.668h-9.141	L360.4,183.292h-36.475l-13.189,27.858h-9.439l40.002-84.668H343.371z M342.303,144.471l-14.508,30.648h28.947L342.303,144.471z"/><path fill="#E7364D" stroke="#e7364d" stroke-miterlimit="10" stroke-width="4" d="M450.086,164.874v-24.98h7.885	v24.98h25.152v7.885h-25.152v24.98h-7.885v-24.98h-25.154v-7.885H450.086z" display="none"/><text fill="#e7364d" stroke="#e7364d" stroke-miterlimit="10" stroke-width="2" display="none" font-family="'CenturyGothic'" font-size="121" transform="matrix(1 0 0 1 288.2969 213.1504)">O</text><g display="none"><path fill="#e7364d" stroke="#e7364d" stroke-miterlimit="10" stroke-width="2" d="M319.109,126.241h17.133 c6.893,0,12.191,0.818,15.894,2.452c3.702,1.635,6.626,4.146,8.773,7.533c2.146,3.388,3.22,7.149,3.22,11.285 c0,3.861-0.94,7.376-2.822,10.546c-1.881,3.171-4.645,5.741-8.289,7.71c4.516,1.536,7.99,3.338,10.426,5.406 c2.435,2.067,4.328,4.569,5.684,7.503c1.355,2.935,2.033,6.115,2.033,9.542c0,6.972-2.551,12.871-7.651,17.695 c-5.101,4.825-11.944,7.237-20.53,7.237h-23.869V126.241z M327.617,134.749v27.828h4.973c6.039,0,10.479-0.562,13.322-1.684 c2.842-1.123,5.092-2.896,6.75-5.317c1.658-2.423,2.486-5.111,2.486-8.065c0-3.978-1.392-7.099-4.174-9.365 c-2.783-2.264-7.214-3.397-13.293-3.397H327.617z M327.617,171.32v33.322h10.771c6.352,0,11.008-0.62,13.967-1.861 c2.959-1.24,5.336-3.18,7.131-5.819c1.795-2.638,2.693-5.495,2.693-8.567c0-3.86-1.262-7.228-3.785-10.103 c-2.524-2.875-5.994-4.845-10.41-5.908c-2.961-0.709-8.111-1.063-15.453-1.063H327.617z" display="inline"/></g><g display="none"><path fill="#e7364d" stroke="#e7364d" stroke-miterlimit="10" stroke-width="2" d="M341.824,125.055 c11.873,0,21.809,4.393,29.807,13.175c7.997,8.784,11.998,19.596,11.998,32.436c0,12.723-3.991,23.515-11.972,32.377 s-17.711,13.293-29.193,13.293c-11.625,0-21.437-4.411-29.435-13.234c-7.997-8.823-11.997-19.497-11.997-32.022 c0-8.35,1.822-16.09,5.466-23.219c3.643-7.128,8.61-12.712,14.902-16.75C327.693,127.074,334.501,125.055,341.824,125.055z M342.171,133.503c-5.8,0-11.298,1.675-16.493,5.026s-9.252,7.865-12.169,13.54c-2.918,5.677-4.377,12.003-4.377,18.98 c0,10.329,3.229,19.05,9.688,26.165c6.457,7.116,14.241,10.673,23.352,10.673c6.083,0,11.715-1.636,16.893-4.908 c5.178-3.271,9.215-7.745,12.114-13.421c2.901-5.677,4.352-11.984,4.352-18.922c0-6.898-1.45-13.137-4.352-18.714 c-2.899-5.578-6.982-10.042-12.248-13.393C353.663,135.179,348.077,133.503,342.171,133.503z" display="inline"/></g><rect width="62" height="13" x="422.5" y="162.5" fill="#E7364D"/></svg>