<svg xmlns="http://www.w3.org/2000/svg" xmlns:xlink="http://www.w3.org/1999/xlink" id="Layer_1" width="512" height="512" x="0" y="0" enable-background="new 0 0 512 512" version="1.1" viewBox="0 0 512 512" xml:space="preserve"><g><path fill="#4C4E54" d="M189.697,472.736c-88.677,0-160.82-70.016-160.82-156.076c0-49.021,44.981-127.263,71.794-169.538 c17.18-27.078,35.728-53.41,52.227-74.144c7.715-9.701,14.404-17.442,19.887-23.01c6.504-6.609,11.603-10.705,16.913-10.705 c5.312,0,10.409,4.097,16.913,10.706c5.467,5.551,12.157,13.292,19.887,23.008c8.819,11.086,18.24,23.797,28.027,37.814 c-3.363,5.105-6.275,10.47-8.707,16.035c-21.843-31.891-39.887-54.15-49.821-64.646l-6.299-6.653l-6.298,6.653 c-15.228,16.087-44.775,54.607-73.664,101.171c-40.9,65.927-64.358,121.806-64.358,153.308c0,77.352,64.742,140.283,144.32,140.283 c79.58,0,144.322-62.932,144.322-140.283c0-10.951-2.781-24.803-8.275-41.244c4.896,0.721,9.836,1.084,14.756,1.084 c0.902,0,1.826-0.016,2.834-0.051c4.768,15.541,7.182,29.059,7.182,40.211C350.516,402.721,278.373,472.736,189.697,472.736z"/><path fill="#4C4E54" d="M338.148,279.697c-59.26,0-107.469-48.21-107.469-107.468c0-59.257,48.209-107.467,107.469-107.467 c34.371,0,66.938,16.664,87.117,44.576c2.428,3.356,1.674,8.045-1.684,10.473c-3.355,2.425-8.045,1.674-10.473-1.685 c-17.367-24.022-45.391-38.364-74.961-38.364c-50.988,0-92.469,41.48-92.469,92.467c0,50.987,41.48,92.468,92.469,92.468 c31.65,0,60.77-15.95,77.891-42.667c2.234-3.488,6.875-4.503,10.361-2.268s4.502,6.874,2.268,10.361 C408.775,261.166,374.936,279.697,338.148,279.697z"/><path fill="#E7364D" d="M141.984,411.725c-1.434,0-2.885-0.385-4.193-1.193c-33.555-20.707-53.112-46.861-58.13-77.736 c-8.896-54.744,31.357-103.71,33.075-105.768c2.832-3.392,7.877-3.845,11.269-1.014c3.391,2.831,3.846,7.874,1.016,11.266 c-0.56,0.677-37.303,45.686-29.553,93.037c4.265,26.053,21.331,48.459,50.726,66.6c3.76,2.32,4.927,7.25,2.606,11.01 C147.288,410.375,144.667,411.725,141.984,411.725z"/><g><path fill="#E7364D" stroke="#e7364d" stroke-miterlimit="10" stroke-width="4" d="M343.371,126.482l39.486,84.668h-9.141 L360.4,183.292h-36.475l-13.189,27.858h-9.439l40.002-84.668H343.371z M342.303,144.471l-14.508,30.648h28.947L342.303,144.471z"/><path fill="#E7364D" stroke="#e7364d" stroke-miterlimit="10" stroke-width="4" d="M450.086,164.874v-24.98h7.885v24.98h25.152 v7.885h-25.152v24.98h-7.885v-24.98h-25.154v-7.885H450.086z"/></g></g></svg>